<?xml version="1.0" encoding="utf-8"?>
<!-- Generator: Adobe Illustrator 16.0.0, SVG Export Plug-In . SVG Version: 6.00 Build 0)  -->
<!DOCTYPE svg PUBLIC "-//W3C//DTD SVG 1.1//EN" "http://www.w3.org/Graphics/SVG/1.1/DTD/svg11.dtd">
<svg version="1.1" id="Capa_1" xmlns="http://www.w3.org/2000/svg" xmlns:xlink="http://www.w3.org/1999/xlink" x="0px" y="0px"
	 width="444.82px" height="444.818px" viewBox="0 0 444.82 444.818" enable-background="new 0 0 444.82 444.818"
	 xml:space="preserve">
<g>
	<path fill="#D73351" d="M434.251,208.708L248.386,22.843c-7.041-7.043-15.692-10.564-25.976-10.564
		c-10.467,0-19.036,3.521-25.697,10.564L10.848,208.708C3.615,215.94,0,224.604,0,234.692c0,9.897,3.619,18.459,10.848,25.693
		l21.411,21.409c6.854,7.23,15.42,10.854,25.697,10.854c10.278,0,18.842-3.624,25.697-10.854l83.939-83.651v200.998
		c0,9.89,3.567,17.936,10.706,24.126c7.139,6.184,15.752,9.273,25.837,9.273h36.545c10.089,0,18.698-3.091,25.837-9.273
		c7.139-6.188,10.712-14.236,10.712-24.126V198.144l83.938,83.651c6.848,7.23,15.412,10.854,25.699,10.854
		c10.082,0,18.748-3.624,25.975-10.854l21.41-21.409c7.043-7.426,10.566-15.988,10.566-25.693
		C444.82,224.795,441.294,216.134,434.251,208.708z"/>
</g>
</svg>
